<svg xmlns="http://www.w3.org/2000/svg" width="30" height="30" viewBox="0 0 43 40" fill="none"><path fill="#201C1C" d="M8.7 39.9c-.3 0-.6-.1-.9-.2-.4-.3-.7-.8-.7-1.3L7 34.8c0-.4-.2-.8-.5-1.1C2.5 30.1.2 25 .2 19.4.2 8.4 8.8.1 20.1.1 31.4.1 40 8.4 40 19.4s-8.6 19.3-19.9 19.3c-2 0-3.9-.3-5.8-.8-.4-.1-.7-.1-1.1.1l-3.9 1.7c-.2.2-.4.2-.6.2Zm-1-7.7s.1 0 0 0c.8.7 1.2 1.6 1.2 2.6l.1 3 3.4-1.5c.8-.3 1.6-.4 2.4-.2 1.7.5 3.4.7 5.2.7 10.2 0 17.9-7.4 17.9-17.3S30.3 2.1 20.1 2.1C9.9 2.1 2.2 9.5 2.2 19.4c0 5 1.9 9.6 5.5 12.8Z"/><path fill="#201C1C" fill-rule="evenodd" d="m8.1 25.1 5.8-9.3c.9-1.5 2.9-1.8 4.3-.8l4.6 3.5c.4.3 1 .3 1.4 0l6.3-4.8c.8-.6 1.9.4 1.4 1.3l-5.8 9.3c-.9 1.5-2.9 1.8-4.3.8l-4.7-3.5c-.4-.3-1-.3-1.4 0l-6.3 4.8c-.7.5-1.8-.5-1.3-1.3Z" clip-rule="evenodd"/></svg>